<mxfile host="app.diagrams.net" modified="2023-08-04T14:43:04.801Z" agent="Mozilla/5.0 (Macintosh; Intel Mac OS X 10_15_7) AppleWebKit/537.36 (KHTML, like Gecko) Chrome/113.0.0.0 Safari/537.36" version="21.6.6" etag="qJoHPeXAuetlUHHLaQzt" type="github">
  <diagram name="페이지-1" id="c2y4VRCSGIfTTQWQQAAG">
    <mxGraphModel>
      <root>
        <mxCell id="0" />
        <mxCell id="1" parent="0" />
      </root>
    </mxGraphModel>
  </diagram>
</mxfile>
